HIERARCHY
ROOT Hips
{
	OFFSET 0.000000 0.000000 0.000000
	CHANNELS 6 Xposition Yposition Zposition Xrotation Yrotation Zrotation
	JOINT Thigh.L
	{
		OFFSET 0.053711 0.030472 -0.091456
		CHANNELS 3 Xrotation Yrotation Zrotation
		JOINT Shin.L
		{
			OFFSET 0.052514 0.016395 -0.408894
			CHANNELS 3 Xrotation Yrotation Zrotation
			JOINT Foot.L
			{
				OFFSET -0.041236 0.032673 -0.429109
				CHANNELS 3 Xrotation Yrotation Zrotation
				JOINT Toe.L
				{
					OFFSET 0.044455 -0.118741 -0.063432
					CHANNELS 3 Xrotation Yrotation Zrotation
					End Site
					{
						OFFSET 0.000000 0.050000 0.000000
					}
				}
			}
		}
	}
	JOINT Thigh.R
	{
		OFFSET -0.058954 0.027926 -0.101748
		CHANNELS 3 Xrotation Yrotation Zrotation
		JOINT Shin.R
		{
			OFFSET -0.041974 0.021652 -0.392695
			CHANNELS 3 Xrotation Yrotation Zrotation
			JOINT Foot.R
			{
				OFFSET 0.015573 0.021275 -0.437989
				CHANNELS 3 Xrotation Yrotation Zrotation
				JOINT Toe.R
				{
					OFFSET -0.036877 -0.119514 -0.063442
					CHANNELS 3 Xrotation Yrotation Zrotation
					End Site
					{
						OFFSET 0.000000 0.050000 0.000000
					}
				}
			}
		}
	}
	JOINT Spine
	{
		OFFSET -0.001910 0.019308 0.108500
		CHANNELS 3 Xrotation Yrotation Zrotation
		JOINT Spine.2
		{
			OFFSET 0.006444 0.002857 0.134094
			CHANNELS 3 Xrotation Yrotation Zrotation
			JOINT Chest
			{
				OFFSET -0.010290 -0.022530 0.049120
				CHANNELS 3 Xrotation Yrotation Zrotation
				JOINT Neck
				{
					OFFSET -0.009229 0.028798 0.163608
					CHANNELS 3 Xrotation Yrotation Zrotation
					JOINT Head
					{
						OFFSET 0.022003 -0.023187 0.167534
						CHANNELS 3 Xrotation Yrotation Zrotation
						End Site
						{
							OFFSET 0.000000 0.050000 0.000000
						}
					}
				}
				JOINT Clavicle.L
				{
					OFFSET 0.043012 0.008471 0.083524
					CHANNELS 3 Xrotation Yrotation Zrotation
					JOINT UpperArm.L
					{
						OFFSET 0.105310 0.014808 0.061378
						CHANNELS 3 Xrotation Yrotation Zrotation
						JOINT ForeArm.L
						{
							OFFSET 0.263479 0.034636 -0.075166
							CHANNELS 3 Xrotation Yrotation Zrotation
							JOINT Hand.L
							{
								OFFSET 0.262256 0.006682 0.020773
								CHANNELS 3 Xrotation Yrotation Zrotation
								JOINT Thumb1.L
								{
									OFFSET 0.154587 0.003047 0.009472
									CHANNELS 3 Xrotation Yrotation Zrotation
									JOINT Thumb2.L
									{
										OFFSET 0.029897 0.000762 0.002368
										CHANNELS 3 Xrotation Yrotation Zrotation
										End Site
										{
											OFFSET 0.024914 0.000635 0.001973
										}
									}
								}
								JOINT Index1.L
								{
									OFFSET 0.137587 0.003047 0.009472
									CHANNELS 3 Xrotation Yrotation Zrotation
									JOINT Index2.L
									{
										OFFSET 0.029897 0.000762 0.002368
										CHANNELS 3 Xrotation Yrotation Zrotation
										JOINT Index3.L
										{
											OFFSET 0.021924 0.000559 0.001737
											CHANNELS 3 Xrotation Yrotation Zrotation
											End Site
											{
												OFFSET 0.017938 0.000457 0.001421
											}
										}
									}
								}
								JOINT Middle1.L
								{
									OFFSET 0.119587 0.003047 0.009472
									CHANNELS 3 Xrotation Yrotation Zrotation
									JOINT Middle2.L
									{
										OFFSET 0.030893 0.000787 0.002447
										CHANNELS 3 Xrotation Yrotation Zrotation
										JOINT Middle3.L
										{
											OFFSET 0.021924 0.000559 0.001737
											CHANNELS 3 Xrotation Yrotation Zrotation
											End Site
											{
												OFFSET 0.017938 0.000457 0.001421
											}
										}
									}
								}
								JOINT Ring1.L
								{
									OFFSET 0.101587 0.003047 0.009472
									CHANNELS 3 Xrotation Yrotation Zrotation
									JOINT Ring2.L
									{
										OFFSET 0.028900 0.000736 0.002289
										CHANNELS 3 Xrotation Yrotation Zrotation
										JOINT Ring3.L
										{
											OFFSET 0.019931 0.000508 0.001579
											CHANNELS 3 Xrotation Yrotation Zrotation
											End Site
											{
												OFFSET 0.016941 0.000432 0.001342
											}
										}
									}
								}
								JOINT Pinky1.L
								{
									OFFSET 0.085587 0.003047 0.009472
									CHANNELS 3 Xrotation Yrotation Zrotation
									JOINT Pinky2.L
									{
										OFFSET 0.023917 0.000609 0.001894
										CHANNELS 3 Xrotation Yrotation Zrotation
										JOINT Pinky3.L
										{
											OFFSET 0.016941 0.000432 0.001342
											CHANNELS 3 Xrotation Yrotation Zrotation
											End Site
											{
												OFFSET 0.013952 0.000355 0.001105
											}
										}
									}
								}
							}
						}
					}
				}
				JOINT Clavicle.R
				{
					OFFSET -0.040902 0.014553 0.083008
					CHANNELS 3 Xrotation Yrotation Zrotation
					JOINT UpperArm.R
					{
						OFFSET -0.090903 0.009538 0.057011
						CHANNELS 3 Xrotation Yrotation Zrotation
						JOINT ForeArm.R
						{
							OFFSET -0.279406 0.022385 -0.042849
							CHANNELS 3 Xrotation Yrotation Zrotation
							JOINT Hand.R
							{
								OFFSET -0.258973 0.019134 -0.003513
								CHANNELS 3 Xrotation Yrotation Zrotation
								JOINT Thumb1.R
								{
									OFFSET -0.154663 0.008841 -0.001623
									CHANNELS 3 Xrotation Yrotation Zrotation
									JOINT Thumb2.R
									{
										OFFSET -0.029916 0.002210 -0.000406
										CHANNELS 3 Xrotation Yrotation Zrotation
										End Site
										{
											OFFSET -0.024930 0.001842 -0.000338
										}
									}
								}
								JOINT Index1.R
								{
									OFFSET -0.137663 0.008841 -0.001623
									CHANNELS 3 Xrotation Yrotation Zrotation
									JOINT Index2.R
									{
										OFFSET -0.029916 0.002210 -0.000406
										CHANNELS 3 Xrotation Yrotation Zrotation
										JOINT Index3.R
										{
											OFFSET -0.021938 0.001621 -0.000298
											CHANNELS 3 Xrotation Yrotation Zrotation
											End Site
											{
												OFFSET -0.017949 0.001326 -0.000244
											}
										}
									}
								}
								JOINT Middle1.R
								{
									OFFSET -0.119663 0.008841 -0.001623
									CHANNELS 3 Xrotation Yrotation Zrotation
									JOINT Middle2.R
									{
										OFFSET -0.030913 0.002284 -0.000419
										CHANNELS 3 Xrotation Yrotation Zrotation
										JOINT Middle3.R
										{
											OFFSET -0.021938 0.001621 -0.000298
											CHANNELS 3 Xrotation Yrotation Zrotation
											End Site
											{
												OFFSET -0.017949 0.001326 -0.000244
											}
										}
									}
								}
								JOINT Ring1.R
								{
									OFFSET -0.101663 0.008841 -0.001623
									CHANNELS 3 Xrotation Yrotation Zrotation
									JOINT Ring2.R
									{
										OFFSET -0.028919 0.002137 -0.000392
										CHANNELS 3 Xrotation Yrotation Zrotation
										JOINT Ring3.R
										{
											OFFSET -0.019944 0.001474 -0.000271
											CHANNELS 3 Xrotation Yrotation Zrotation
											End Site
											{
												OFFSET -0.016952 0.001252 -0.000230
											}
										}
									}
								}
								JOINT Pinky1.R
								{
									OFFSET -0.085663 0.008841 -0.001623
									CHANNELS 3 Xrotation Yrotation Zrotation
									JOINT Pinky2.R
									{
										OFFSET -0.023933 0.001768 -0.000325
										CHANNELS 3 Xrotation Yrotation Zrotation
										JOINT Pinky3.R
										{
											OFFSET -0.016952 0.001252 -0.000230
											CHANNELS 3 Xrotation Yrotation Zrotation
											End Site
											{
												OFFSET -0.013961 0.001031 -0.000189
											}
										}
									}
								}
							}
						}
					}
				}
			}
		}
	}
}
MOTION
Frames: 7
Frame Time: 0.03333333
-0.333166 0.037021 1.060210 -2.843420 -0.672352 5.592616 -4.152435 4.850791 2.540380 35.597312 11.218300 -1.751682 3.451758 8.264444 7.804341 0.842063 -4.253659 -0.584607 -21.593604 -4.587707 -1.250803 26.222263 -10.120084 -11.274800 13.488775 -8.969436 -2.094809 1.583266 -2.277018 -0.547410 5.906079 1.863908 -0.086324 9.009683 -6.662728 -5.470708 -12.977282 2.254769 0.258855 13.062837 5.018180 0.854671 4.807804 -4.553333 9.932671 7.877404 16.966596 -2.033235 19.176672 46.344993 -28.722699 6.876404 -3.203271 -28.293051 4.504698 -1.451542 -9.633585 0.000000 0.000000 0.000000 0.000000 0.000000 0.000000 0.000000 0.000000 0.000000 0.000000 0.000000 0.000000 0.000000 0.000000 0.000000 0.000000 0.000000 0.000000 0.000000 0.000000 0.000000 0.000000 0.000000 0.000000 0.000000 0.000000 0.000000 0.000000 0.000000 0.000000 0.000000 0.000000 0.000000 0.000000 0.000000 0.000000 0.000000 0.000000 0.000000 0.000000 0.000000 0.000000 6.723103 -10.917883 0.331650 23.218519 -49.356456 16.519359 4.973372 0.398549 31.257731 -5.174611 0.563676 5.540306 0.000000 0.000000 0.000000 0.000000 0.000000 0.000000 0.000000 0.000000 0.000000 0.000000 0.000000 0.000000 0.000000 0.000000 0.000000 0.000000 0.000000 0.000000 0.000000 0.000000 0.000000 0.000000 0.000000 0.000000 0.000000 0.000000 0.000000 0.000000 0.000000 0.000000 0.000000 0.000000 0.000000 0.000000 0.000000 0.000000 0.000000 0.000000 0.000000 0.000000 0.000000 0.000000
-0.311486 0.021878 1.060536 -2.604113 0.005160 4.645322 1.373355 7.844341 3.082052 21.999066 8.561692 -2.431096 1.971777 7.550761 8.321335 1.242050 -4.500208 -0.215089 -25.708188 -3.637252 -1.689003 30.496862 -13.316023 -13.076992 16.738593 -10.850672 -1.335465 1.681179 -2.236319 -0.462039 5.772412 1.261204 -0.911004 8.792958 -7.302587 -5.505956 -12.643637 2.087264 0.400170 12.804830 5.365466 1.983462 4.922845 -3.728436 9.946185 7.411783 16.765439 -2.097946 19.843334 46.437578 -29.032634 7.331987 -3.538507 -30.378002 5.880818 -0.830483 -9.975179 0.000000 0.000000 0.000000 0.000000 0.000000 0.000000 0.000000 0.000000 0.000000 0.000000 0.000000 0.000000 0.000000 0.000000 0.000000 0.000000 0.000000 0.000000 0.000000 0.000000 0.000000 0.000000 0.000000 0.000000 0.000000 0.000000 0.000000 0.000000 0.000000 0.000000 0.000000 0.000000 0.000000 0.000000 0.000000 0.000000 0.000000 0.000000 0.000000 0.000000 0.000000 0.000000 6.196154 -11.169221 0.300196 23.076962 -48.625017 16.367823 4.999784 0.396807 31.294907 -2.768755 0.699389 5.664624 0.000000 0.000000 0.000000 0.000000 0.000000 0.000000 0.000000 0.000000 0.000000 0.000000 0.000000 0.000000 0.000000 0.000000 0.000000 0.000000 0.000000 0.000000 0.000000 0.000000 0.000000 0.000000 0.000000 0.000000 0.000000 0.000000 0.000000 0.000000 0.000000 0.000000 0.000000 0.000000 0.000000 0.000000 0.000000 0.000000 0.000000 0.000000 0.000000 0.000000 0.000000 0.000000
-0.290737 0.002813 1.053681 -2.779201 0.884891 3.920903 4.653638 8.512433 3.462173 14.667843 6.440840 -3.606658 -1.617284 5.349025 9.817612 1.260904 -5.272109 -0.162756 -29.863548 -1.961812 -1.452716 37.951114 -16.610767 -13.028059 16.962549 -11.350655 -1.057311 1.732508 -2.291118 -0.326901 6.539499 0.910653 -1.594421 8.575932 -7.845089 -5.347431 -12.561976 2.059778 0.578189 12.577864 5.184666 3.073973 4.783475 -2.930554 10.026645 7.285231 16.454370 -2.242332 19.636854 46.378305 -28.988335 8.293097 -3.905836 -31.458067 6.845381 -1.614678 -10.004238 0.000000 0.000000 0.000000 0.000000 0.000000 0.000000 0.000000 0.000000 0.000000 0.000000 0.000000 0.000000 0.000000 0.000000 0.000000 0.000000 0.000000 0.000000 0.000000 0.000000 0.000000 0.000000 0.000000 0.000000 0.000000 0.000000 0.000000 0.000000 0.000000 0.000000 0.000000 0.000000 0.000000 0.000000 0.000000 0.000000 0.000000 0.000000 0.000000 0.000000 0.000000 0.000000 5.973943 -11.547299 0.240385 22.720483 -48.271003 16.457927 5.398342 0.257527 30.728918 -1.135834 1.336884 6.225650 0.000000 0.000000 0.000000 0.000000 0.000000 0.000000 0.000000 0.000000 0.000000 0.000000 0.000000 0.000000 0.000000 0.000000 0.000000 0.000000 0.000000 0.000000 0.000000 0.000000 0.000000 0.000000 0.000000 0.000000 0.000000 0.000000 0.000000 0.000000 0.000000 0.000000 0.000000 0.000000 0.000000 0.000000 0.000000 0.000000 0.000000 0.000000 0.000000 0.000000 0.000000 0.000000
-0.268106 -0.018972 1.042815 -3.804573 1.239918 2.919487 6.771720 8.662465 3.882972 10.766409 4.946494 -5.015546 -6.660434 1.787679 11.881370 1.074883 -6.235979 -0.395688 -33.976859 1.025656 -0.880932 47.542207 -19.317241 -11.708828 16.464480 -11.449761 -1.382379 1.605595 -1.897766 0.086364 8.030182 0.935999 -1.978590 8.732481 -8.423542 -4.891675 -13.098762 2.349726 0.971258 12.434698 4.833642 3.677450 4.452693 -2.056606 9.900836 7.544796 16.407355 -2.097707 18.656870 45.812400 -28.311801 9.359346 -4.021746 -32.480842 7.395207 -3.376078 -9.538290 0.000000 0.000000 0.000000 0.000000 0.000000 0.000000 0.000000 0.000000 0.000000 0.000000 0.000000 0.000000 0.000000 0.000000 0.000000 0.000000 0.000000 0.000000 0.000000 0.000000 0.000000 0.000000 0.000000 0.000000 0.000000 0.000000 0.000000 0.000000 0.000000 0.000000 0.000000 0.000000 0.000000 0.000000 0.000000 0.000000 0.000000 0.000000 0.000000 0.000000 0.000000 0.000000 6.339957 -12.481271 0.092363 21.786643 -47.685379 16.195653 5.808352 -0.155756 29.537299 0.356167 2.404741 6.529046 0.000000 0.000000 0.000000 0.000000 0.000000 0.000000 0.000000 0.000000 0.000000 0.000000 0.000000 0.000000 0.000000 0.000000 0.000000 0.000000 0.000000 0.000000 0.000000 0.000000 0.000000 0.000000 0.000000 0.000000 0.000000 0.000000 0.000000 0.000000 0.000000 0.000000 0.000000 0.000000 0.000000 0.000000 0.000000 0.000000 0.000000 0.000000 0.000000 0.000000 0.000000 0.000000
-0.247110 -0.041532 1.032823 -5.758308 1.500782 0.457275 7.932656 7.439969 4.658570 9.503127 3.758844 -5.950335 -11.911632 -1.893309 13.851317 0.564601 -7.534626 -0.821654 -38.523716 5.708599 0.791114 61.194566 -20.316997 -7.861365 14.491831 -10.329657 -2.227054 1.250945 -1.724344 0.642213 9.944139 0.414311 -2.571119 8.641251 -8.357364 -3.998016 -12.986269 2.846153 1.340551 12.008348 4.176631 4.713999 5.002802 -0.862970 9.965544 7.786152 16.705728 -1.541665 17.320531 45.358371 -26.966051 10.989289 -4.236435 -32.007366 7.522767 -3.742084 -8.498610 0.000000 0.000000 0.000000 0.000000 0.000000 0.000000 0.000000 0.000000 0.000000 0.000000 0.000000 0.000000 0.000000 0.000000 0.000000 0.000000 0.000000 0.000000 0.000000 0.000000 0.000000 0.000000 0.000000 0.000000 0.000000 0.000000 0.000000 0.000000 0.000000 0.000000 0.000000 0.000000 0.000000 0.000000 0.000000 0.000000 0.000000 0.000000 0.000000 0.000000 0.000000 0.000000 6.381252 -13.381651 -0.161913 20.660719 -47.104187 16.368383 6.346659 -0.281969 28.117465 0.993421 3.241417 6.085877 0.000000 0.000000 0.000000 0.000000 0.000000 0.000000 0.000000 0.000000 0.000000 0.000000 0.000000 0.000000 0.000000 0.000000 0.000000 0.000000 0.000000 0.000000 0.000000 0.000000 0.000000 0.000000 0.000000 0.000000 0.000000 0.000000 0.000000 0.000000 0.000000 0.000000 0.000000 0.000000 0.000000 0.000000 0.000000 0.000000 0.000000 0.000000 0.000000 0.000000 0.000000 0.000000
-0.228599 -0.052209 1.027695 -6.721875 1.791869 -1.253106 7.951596 6.106859 4.706370 9.453798 3.562323 -6.287100 -13.596176 -3.655090 14.847430 0.349484 -7.919346 -1.009141 -40.582287 9.123026 2.743798 67.736306 -18.920610 -6.000520 12.827673 -8.709226 -4.345685 1.068353 -1.454975 0.876319 10.155692 0.023717 -2.891372 8.522365 -8.054729 -3.343446 -12.467650 3.302523 1.497760 11.507571 3.483772 5.485926 5.858179 -0.218608 10.543099 8.119080 17.482338 -0.938515 16.091105 44.707576 -25.078319 11.955645 -3.987762 -31.019596 7.135044 -3.618993 -7.949617 0.000000 0.000000 0.000000 0.000000 0.000000 0.000000 0.000000 0.000000 0.000000 0.000000 0.000000 0.000000 0.000000 0.000000 0.000000 0.000000 0.000000 0.000000 0.000000 0.000000 0.000000 0.000000 0.000000 0.000000 0.000000 0.000000 0.000000 0.000000 0.000000 0.000000 0.000000 0.000000 0.000000 0.000000 0.000000 0.000000 0.000000 0.000000 0.000000 0.000000 0.000000 0.000000 6.638250 -14.368402 -0.226068 20.095985 -46.463122 16.684463 6.334651 -0.134711 27.179177 1.357971 3.236439 5.393706 0.000000 0.000000 0.000000 0.000000 0.000000 0.000000 0.000000 0.000000 0.000000 0.000000 0.000000 0.000000 0.000000 0.000000 0.000000 0.000000 0.000000 0.000000 0.000000 0.000000 0.000000 0.000000 0.000000 0.000000 0.000000 0.000000 0.000000 0.000000 0.000000 0.000000 0.000000 0.000000 0.000000 0.000000 0.000000 0.000000 0.000000 0.000000 0.000000 0.000000 0.000000 0.000000
-0.208219 -0.054904 1.031295 -7.170868 1.899406 -2.952455 7.918194 4.207183 4.873079 10.063959 3.138492 -5.968489 -12.823679 -3.162871 15.201442 0.477218 -7.520366 -0.919373 -39.375684 10.724123 3.884816 68.142263 -16.159038 -5.209581 11.239950 -7.443315 -5.740523 0.957496 -1.314283 0.832129 9.820299 -0.230734 -2.924252 8.668458 -7.616314 -2.906576 -11.975752 3.324162 1.518407 11.795485 3.383945 5.443593 6.289049 -0.064406 11.203153 8.488937 18.497597 -0.650442 15.139879 44.184313 -23.244489 12.289014 -3.357724 -29.309278 6.490506 -3.674187 -7.827686 0.000000 0.000000 0.000000 0.000000 0.000000 0.000000 0.000000 0.000000 0.000000 0.000000 0.000000 0.000000 0.000000 0.000000 0.000000 0.000000 0.000000 0.000000 0.000000 0.000000 0.000000 0.000000 0.000000 0.000000 0.000000 0.000000 0.000000 0.000000 0.000000 0.000000 0.000000 0.000000 0.000000 0.000000 0.000000 0.000000 0.000000 0.000000 0.000000 0.000000 0.000000 0.000000 6.945916 -14.756344 0.107449 19.576346 -46.092803 17.146930 6.428661 -0.182437 26.794567 1.595521 3.234405 5.032780 0.000000 0.000000 0.000000 0.000000 0.000000 0.000000 0.000000 0.000000 0.000000 0.000000 0.000000 0.000000 0.000000 0.000000 0.000000 0.000000 0.000000 0.000000 0.000000 0.000000 0.000000 0.000000 0.000000 0.000000 0.000000 0.000000 0.000000 0.000000 0.000000 0.000000 0.000000 0.000000 0.000000 0.000000 0.000000 0.000000 0.000000 0.000000 0.000000 0.000000 0.000000 0.000000
